<svg width="128" height="96" viewBox="0 0 128 96" fill="none" xmlns="http://www.w3.org/2000/svg">
<path d="M39.6725 18.114C29.0306 18.6518 26.4445 24.7624 23.8356 31.3191L70.2249 57.7522L39.6725 18.114Z" fill="#008BD0"/>
<path d="M28.0466 58.1069C28.7145 56.2727 29.795 54.6167 31.2048 53.2666C36.3198 48.266 44.6845 47.3506 49.9024 51.2297C50.9944 52.0134 51.9085 53.0189 52.5849 54.1804C53.2613 55.3418 53.6847 56.6331 53.8274 57.9696L69.218 57.8895L24.0301 36.0679L20.3799 58.1527L28.0466 58.1069Z" fill="#008BD0"/>
<path d="M67.3757 16.7522L42.5447 15.5737L71.1748 57.8437L67.3757 16.7522Z" fill="#008BD0"/>
<path d="M19.4301 52.4426L0 57.9351L18.1027 58.1297L19.4301 52.4426Z" fill="#008BD0"/>
<path d="M72.3076 57.5232H82.4345C83.117 55.933 84.1134 54.497 85.364 53.3009C90.4675 48.3004 98.8322 47.3849 104.05 51.264C106.094 52.7354 107.479 54.9501 107.906 57.4318H123.125L107.105 35.3355L94.2093 17.6105L72.3076 57.5232Z" fill="#008BD0"/>
<path d="M90.0326 17.3588L71.6553 15.2877L71.7125 57.7751L90.0326 17.3588Z" fill="#008BD0"/>
<path d="M5.00057 40.6336H16.7868C17.764 40.6336 18.7012 40.2454 19.3922 39.5544C20.0832 38.8634 20.4714 37.9262 20.4714 36.949C20.4714 35.9718 20.0832 35.0346 19.3922 34.3436C18.7012 33.6527 17.764 33.2645 16.7868 33.2645C16.5888 33.2472 16.3897 33.2472 16.1917 33.2645C16.2092 33.0397 16.2092 32.8141 16.1917 32.5894C16.2782 31.3754 15.879 30.1768 15.0818 29.2572C14.2846 28.3377 13.1547 27.7725 11.9408 27.6861C10.7268 27.5996 9.52828 27.9989 8.60874 28.7961C7.6892 29.5933 7.12393 30.7231 7.03744 31.937C6.38353 31.5975 5.65734 31.4209 4.92054 31.4222C3.7066 31.4222 2.54231 31.9043 1.68393 32.7627C0.825545 33.6211 0.343384 34.7854 0.343384 35.9993C0.343384 37.2133 0.825545 38.3774 1.68393 39.2358C2.54231 40.0942 3.7066 40.5765 4.92054 40.5765L5.00057 40.6336Z" fill="#FBA81C"/>
<path d="M48.9069 52.2138C44.2496 48.781 36.7889 49.5592 32.2347 54.0219C27.6804 58.4846 27.7606 64.8927 32.4178 68.3484C37.0751 71.8042 44.5358 71.0031 49.09 66.5403C53.6443 62.0776 53.5527 55.7153 48.9069 52.2138ZM44.2612 62.9587C43.3389 63.8769 42.1311 64.4533 40.8371 64.5927C39.5431 64.7321 38.2404 64.4262 37.1437 63.7254C35.1527 62.2493 35.1183 59.5145 37.0635 57.6035C37.9858 56.6853 39.1936 56.1089 40.4876 55.9695C41.7816 55.8301 43.0843 56.136 44.181 56.8368C46.172 58.3129 46.2064 61.0477 44.2497 62.9587H44.2612Z" fill="#FBA81C"/>
<path d="M124.098 41.3088C125.071 41.2554 125.987 40.8313 126.657 40.1236C127.326 39.4159 127.7 38.4784 127.7 37.504C127.7 36.5295 127.326 35.5921 126.657 34.8845C125.987 34.1768 125.071 33.7526 124.098 33.6993C123.896 33.6875 123.694 33.6875 123.492 33.6993C123.504 33.4667 123.504 33.2338 123.492 33.0013C123.493 31.8012 123.04 30.6453 122.222 29.7669C121.404 28.8885 120.284 28.353 119.087 28.2688C117.89 28.1845 116.705 28.5577 115.773 29.3129C114.84 30.0681 114.229 31.1491 114.063 32.3375C113.394 31.9809 112.647 31.7962 111.888 31.7997C111.204 31.7985 110.528 31.9453 109.906 32.2296C109.284 32.514 108.731 32.9295 108.284 33.4475L114.005 41.263L124.098 41.3088Z" fill="#FBA81C"/>
<path d="M103.055 52.2138C98.3974 48.781 90.9366 49.5592 86.3823 54.0219C81.828 58.4846 81.9196 64.8927 86.5654 68.3484C91.2112 71.8042 98.6835 71.0031 103.238 66.5403C107.792 62.0776 107.712 55.7153 103.055 52.2138ZM98.077 62.707C97.2422 63.5453 96.1456 64.0728 94.9695 64.2019C93.7934 64.3309 92.6086 64.0538 91.6118 63.4165C91.1902 63.0883 90.8479 62.6694 90.6104 62.1909C90.3728 61.7124 90.2461 61.1866 90.2395 60.6524C90.2329 60.1182 90.3467 59.5893 90.5724 59.1051C90.7981 58.6209 91.1298 58.1937 91.5431 57.8552C92.3782 57.0168 93.4757 56.4902 94.6523 56.3631C95.8289 56.2361 97.0134 56.5164 98.0083 57.1572C98.4288 57.4865 98.7693 57.9067 99.0041 58.3863C99.239 58.8659 99.362 59.3926 99.3642 59.9266C99.3664 60.4606 99.2477 60.9883 99.0168 61.4698C98.786 61.9514 98.449 62.3743 98.0312 62.707H98.077Z" fill="#FBA81C"/>
<path d="M98.4775 12.1408C98.5315 12.6765 98.7145 13.1911 99.011 13.6405C99.3074 14.0899 99.7084 14.4606 100.18 14.721C100.651 14.9815 101.178 15.1239 101.716 15.1359C102.255 15.1479 102.788 15.0292 103.27 14.79C103.752 14.5509 104.169 14.1983 104.486 13.7625C104.802 13.3268 105.008 12.8209 105.086 12.2882C105.163 11.7555 105.111 11.2119 104.933 10.7039C104.754 10.1959 104.455 9.73876 104.062 9.37158C101.925 9.58447 99.94 10.5691 98.4775 12.1408Z" fill="#FBA81C"/>
<path d="M97.5964 0C95.3784 1.60846 93.8111 3.95928 93.1795 6.62533C92.5128 9.32877 92.804 12.1798 94.0033 14.6926C96.2171 13.0822 97.7801 10.7315 98.4088 8.06715C99.0733 5.36462 98.7864 2.51577 97.5964 0Z" fill="#FBA81C"/>
<path d="M105.373 74.7448H98.324C98.2499 74.7462 98.1769 74.7632 98.1098 74.7948C98.0428 74.8263 97.9831 74.8717 97.9348 74.9279C97.8332 75.0367 97.776 75.1795 97.7746 75.3284V86.7713C97.7779 87.1374 97.6383 87.4904 97.3856 87.7553C97.2456 87.9084 97.07 88.0245 96.8743 88.0934C96.6787 88.1622 96.4692 88.1817 96.2642 88.1499C96.0592 88.1182 95.8653 88.0364 95.6996 87.9116C95.5339 87.7869 95.4016 87.6231 95.3145 87.4349C95.193 87.235 95.1295 87.0052 95.1314 86.7713V75.2597C95.1314 75.1129 95.0738 74.9721 94.9711 74.8673C94.8685 74.7625 94.7288 74.702 94.5821 74.699H87.9452C87.8716 74.6967 87.7985 74.7109 87.7312 74.7406C87.6639 74.7703 87.6041 74.8148 87.5562 74.8706C87.5017 74.9191 87.4589 74.9794 87.4312 75.0468C87.4034 75.1142 87.3914 75.1869 87.396 75.2597V86.4737C87.3875 87.613 87.5973 88.7433 88.0139 89.8037C88.4176 90.82 89.025 91.743 89.7989 92.5156C90.6508 93.3314 91.6699 93.9522 92.7855 94.335C94.108 94.8017 95.5027 95.0302 96.9049 95.0101C98.028 95.0171 99.1473 94.8786 100.235 94.5982H105.373C105.448 94.5977 105.522 94.5824 105.59 94.5529C105.659 94.5234 105.721 94.4804 105.773 94.4265C105.831 94.3769 105.877 94.3154 105.909 94.2463C105.94 94.1772 105.956 94.102 105.956 94.026V75.294C105.958 75.2161 105.943 75.1387 105.911 75.0675C105.879 74.9962 105.832 74.9329 105.773 74.8821C105.663 74.7857 105.519 74.7365 105.373 74.7448Z" fill="#008BD0"/>
<path d="M122.937 74.9622C122.836 74.8584 122.703 74.7903 122.56 74.7677H121.77C120.166 74.7618 118.571 75.0287 117.056 75.5572V75.317C117.034 75.1699 116.966 75.0336 116.861 74.928C116.812 74.8748 116.752 74.8328 116.684 74.8052C116.617 74.7775 116.545 74.7648 116.472 74.7677H108.954C108.876 74.7657 108.798 74.78 108.725 74.8095C108.652 74.839 108.586 74.8833 108.531 74.9394C108.431 75.0528 108.378 75.2001 108.382 75.3513V93.66C108.375 93.7373 108.385 93.8152 108.412 93.8883C108.438 93.9614 108.48 94.028 108.534 94.0835C108.588 94.1389 108.654 94.1818 108.727 94.2095C108.799 94.2371 108.877 94.2488 108.954 94.2436H116.472C116.627 94.2436 116.776 94.182 116.885 94.0726C116.994 93.9631 117.056 93.8147 117.056 93.66V83.9221C117.532 83.2215 118.194 82.6669 118.967 82.32C119.844 81.9112 120.802 81.704 121.77 81.7135H122.468C122.548 81.726 122.628 81.719 122.704 81.6931C122.78 81.6672 122.848 81.6231 122.903 81.5648C122.957 81.5128 123 81.4507 123.03 81.3819C123.059 81.3131 123.074 81.2391 123.075 81.1643V75.3284C123.073 75.194 123.025 75.0643 122.937 74.9622Z" fill="#008BD0"/>
<path d="M80.3472 75.7059C78.7646 74.7909 76.9688 74.3091 75.1407 74.3091C73.3126 74.3091 71.5168 74.7909 69.9342 75.7059C67.6168 77.1198 65.9449 79.3844 65.276 82.0153C64.6071 84.6462 64.9943 87.4344 66.3549 89.7834C67.7156 92.1324 69.9415 93.8556 72.5564 94.5843C75.1714 95.313 77.9678 94.9895 80.3472 93.6828C81.9136 92.7759 83.2185 91.4789 84.1348 89.918C85.0419 88.3286 85.5189 86.5301 85.5189 84.7C85.5189 82.8699 85.0419 81.0716 84.1348 79.4821C83.2222 77.9154 81.9166 76.6138 80.3472 75.7059ZM77.2004 86.7712C76.652 87.3135 75.912 87.6176 75.1407 87.6176C74.3695 87.6176 73.6293 87.3135 73.081 86.7712C72.8074 86.501 72.5913 86.1782 72.4458 85.8222C72.3003 85.4663 72.2283 85.0845 72.2342 84.7C72.2294 84.3191 72.3019 83.9412 72.4475 83.5891C72.593 83.237 72.8085 82.9182 73.081 82.6518C73.351 82.3806 73.672 82.1652 74.0255 82.0184C74.379 81.8715 74.758 81.796 75.1407 81.796C75.5235 81.796 75.9025 81.8715 76.256 82.0184C76.6094 82.1652 76.9303 82.3806 77.2004 82.6518C77.4712 82.9187 77.6851 83.238 77.8287 83.5901C77.9723 83.9422 78.0426 84.3198 78.0357 84.7C78.0438 85.0838 77.9739 85.4652 77.8303 85.8212C77.6868 86.1772 77.4724 86.5004 77.2004 86.7712Z" fill="#008BD0"/>
<path d="M69.7855 71.9756C69.8402 71.9267 69.8837 71.8667 69.9133 71.7996C69.9429 71.7325 69.9579 71.6599 69.9572 71.5866V65.8651C69.9605 65.7881 69.9467 65.7113 69.9171 65.6401C69.8874 65.5689 69.8425 65.5051 69.7855 65.4532C69.7317 65.3994 69.6673 65.3574 69.5964 65.3299C69.5255 65.3023 69.4496 65.2897 69.3736 65.293H48.4789C48.4026 65.2874 48.3261 65.2989 48.2548 65.3266C48.1836 65.3544 48.1194 65.3976 48.0669 65.4532C48.0099 65.5051 47.9649 65.5689 47.9352 65.6401C47.9056 65.7113 47.892 65.7881 47.8953 65.8651V71.5866C47.8945 71.6599 47.9095 71.7325 47.9391 71.7996C47.9687 71.8667 48.0123 71.9267 48.0669 71.9756C48.1212 72.0288 48.1857 72.0706 48.2565 72.0981C48.3273 72.1256 48.4029 72.1384 48.4789 72.1358H54.8297V93.6485C54.8262 93.7262 54.8386 93.8039 54.8662 93.8767C54.8937 93.9495 54.9357 94.0159 54.9898 94.0719C55.0393 94.125 55.0998 94.1668 55.1669 94.1945C55.2341 94.2222 55.3064 94.235 55.379 94.2321H62.4049C62.4791 94.2345 62.5529 94.2214 62.6218 94.1938C62.6908 94.1662 62.7533 94.1248 62.8054 94.0719C62.8633 94.0182 62.9087 93.9524 62.9383 93.8792C62.968 93.8061 62.9813 93.7273 62.977 93.6485V72.1358H69.3278C69.411 72.1427 69.4949 72.1321 69.5737 72.1045C69.6526 72.0769 69.7247 72.0329 69.7855 71.9756Z" fill="#008BD0"/>
<path d="M20.2377 74.7677H16.4387V69.7213C16.4416 69.6488 16.4288 69.5765 16.4011 69.5093C16.3735 69.4421 16.3317 69.3818 16.2785 69.3323C16.2281 69.2803 16.1676 69.2392 16.1007 69.2116C16.0337 69.1841 15.9618 69.1706 15.8894 69.1721H8.87496C8.72567 69.1712 8.58197 69.2287 8.47448 69.3323C8.42507 69.384 8.38646 69.445 8.36092 69.5118C8.33538 69.5786 8.3234 69.6499 8.32572 69.7213V74.7677H4.54951C4.47543 74.7691 4.40256 74.7862 4.33552 74.8177C4.26848 74.8493 4.20881 74.8946 4.1605 74.9508C4.1076 75.0029 4.06598 75.0653 4.03841 75.1342C4.01084 75.2032 3.99789 75.2771 4.00028 75.3513V81.0727C3.99789 81.1469 4.01084 81.2207 4.03841 81.2897C4.06598 81.3586 4.1076 81.4211 4.1605 81.4732C4.20938 81.5279 4.2694 81.5714 4.3365 81.601C4.40359 81.6306 4.47618 81.6456 4.54951 81.6449H8.32572V93.5912C8.32002 93.6682 8.3303 93.7456 8.35589 93.8184C8.38149 93.8913 8.42187 93.958 8.47448 94.0146C8.52614 94.068 8.58844 94.11 8.65747 94.1376C8.7265 94.1652 8.80067 94.1779 8.87496 94.1748H15.8894C15.9622 94.1793 16.0351 94.1673 16.1025 94.1396C16.1699 94.1118 16.23 94.069 16.2785 94.0146C16.335 93.9603 16.3787 93.8942 16.4064 93.821C16.4341 93.7477 16.4452 93.6692 16.4387 93.5912V81.6449H20.2149C20.2882 81.6456 20.3608 81.6306 20.4279 81.601C20.495 81.5714 20.555 81.5279 20.6039 81.4732C20.7055 81.3644 20.7627 81.2216 20.7641 81.0727V75.3513C20.7627 75.2025 20.7055 75.0596 20.6039 74.9508C20.5582 74.8974 20.5023 74.8536 20.4394 74.8222C20.3765 74.7907 20.3078 74.7722 20.2377 74.7677Z" fill="#008BD0"/>
<path d="M43.6614 74.7448H36.0976C34.8151 74.342 33.4675 74.1867 32.1269 74.2871C29.7416 74.5038 27.5024 75.53 25.7809 77.1953C24.0594 78.8605 22.9593 81.0646 22.6636 83.4414C22.5087 84.9357 22.6765 86.4459 23.1557 87.8698C23.6127 89.2299 24.3406 90.4833 25.2955 91.5543C26.2564 92.6069 27.4254 93.4486 28.7284 94.0261C30.0656 94.6464 31.5224 94.9668 32.9965 94.9644C34.0516 94.9642 35.1007 94.8061 36.109 94.4952H43.6728C43.8241 94.4998 43.9713 94.4466 44.0848 94.3465C44.1397 94.2954 44.1833 94.2333 44.2128 94.1643C44.2424 94.0954 44.2573 94.021 44.2564 93.946V75.1911C44.2564 75.0363 44.1949 74.8879 44.0855 74.7785C43.976 74.669 43.8276 74.6075 43.6728 74.6075L43.6614 74.7448ZM35.0449 86.7713C34.7788 87.0473 34.4584 87.2652 34.1038 87.4109C33.7493 87.5567 33.3683 87.6272 32.9851 87.6181C32.604 87.6235 32.2259 87.5513 31.8738 87.4057C31.5216 87.2602 31.2028 87.0442 30.9369 86.7713C30.6633 86.5011 30.4471 86.1782 30.3016 85.8223C30.1561 85.4663 30.0842 85.0846 30.0901 84.7001C30.0853 84.3191 30.1579 83.9412 30.3034 83.5892C30.449 83.2371 30.6645 82.9182 30.9369 82.6519C31.2006 82.3752 31.5187 82.1561 31.8712 82.0084C32.2238 81.8607 32.6029 81.7876 32.9851 81.7937C33.3694 81.7839 33.7515 81.8552 34.1065 82.0031C34.4614 82.1509 34.7811 82.3721 35.0449 82.6519C35.3194 82.9166 35.5364 83.2352 35.6821 83.5876C35.8278 83.9401 35.8991 84.3188 35.8916 84.7001C35.9002 85.0849 35.8294 85.4675 35.6838 85.8238C35.5381 86.1802 35.3206 86.5027 35.0449 86.7713Z" fill="#008BD0"/>
</svg>
